<svg width="24" height="25" viewBox="0 0 24 25" fill="none" xmlns="http://www.w3.org/2000/svg">
<g clip-path="url(#clip0_1_135)">
<path d="M2.96426 19.3525L3.89185 16.7108H9.49773L10.4253 19.3525H13.4098L8.34833 5.46875H5.06143L0 19.3525H2.96426ZM8.73146 14.4862H4.65812L6.69479 8.68644L8.73146 14.4862ZM18.2206 19.5312C19.054 19.5312 19.7901 19.3624 20.4286 19.0248C21.0672 18.6871 21.568 18.2601 21.9309 17.7436V19.3525H24.7742V8.34878H21.9309V9.9179C21.5545 9.41473 21.0537 8.99762 20.4286 8.66658C19.8035 8.33554 19.0742 8.17002 18.2407 8.17002C17.2862 8.17002 16.4225 8.40175 15.6495 8.8652C14.8765 9.32866 14.2648 9.99073 13.8145 10.8514C13.3641 11.7121 13.139 12.6986 13.139 13.8109C13.139 14.9364 13.3641 15.9329 13.8145 16.8002C14.2648 17.6675 14.8765 18.3395 15.6495 18.8162C16.4225 19.2929 17.2795 19.5312 18.2206 19.5312ZM18.9667 17.0882C18.4558 17.0882 17.9752 16.9558 17.5249 16.6909C17.0745 16.4261 16.7115 16.0454 16.4359 15.5489C16.1604 15.0523 16.0226 14.473 16.0226 13.8109C16.0226 13.1488 16.1604 12.5761 16.4359 12.0928C16.7115 11.6095 17.0711 11.2421 17.5148 10.9905C17.9584 10.7389 18.4424 10.6131 18.9667 10.6131C19.491 10.6131 19.9816 10.7422 20.4387 11.0004C20.8958 11.2586 21.2588 11.6294 21.5276 12.1127C21.7965 12.596 21.9309 13.1753 21.9309 13.8506C21.9309 14.526 21.7965 15.1053 21.5276 15.5886C21.2588 16.0719 20.8958 16.4427 20.4387 16.7009C19.9816 16.9591 19.491 17.0882 18.9667 17.0882Z" fill="white"/>
</g>
<defs>
<clipPath id="clip0_1_135">
<rect width="24" height="25" fill="white"/>
</clipPath>
</defs>
</svg>
